# Blender v2.79 (sub 0) OBJ File: ''
# www.blender.org
o cube
v -0.500000 -0.500000 -0.500000
v -0.500000 -0.500000 0.500000
v -0.500000 0.500000 -0.500000
v -0.500000 0.500000 0.500000
v 0.500000 0.500000 -0.500000
v 0.500000 0.500000 0.500000
v 0.500000 -0.500000 -0.500000
v 0.500000 -0.500000 0.500000
vt 0.002325 0.998390
vt -0.001550 0.000082
vt 0.997002 0.996175
vt 0.997978 0.999104
vt 0.996817 -0.001468
vt -0.003100 0.993758
vt -0.003100 0.001591
vt 0.995267 0.995308
vt 0.993717 0.003142
vt -0.000513 1.001743
vt 0.001694 0.001538
vt 0.999692 1.000513
vt 0.999077 -0.001538
vt 0.996165 0.087541
vt 0.004272 0.091092
vt 0.998698 0.048828
vt 0.003255 0.053711
vt 0.001846 0.043679
vt 0.999349 0.043425
vt 0.001953 0.104818
vt 0.998372 0.102865
vt 0.999024 0.091881
vt 0.000681 0.092176
vt 0.999983 0.042785
vt 0.001247 0.041530
vn -1.0000 -0.0000 0.0000
vn -0.0000 1.0000 0.0000
vn 1.0000 0.0000 0.0000
vn 0.0000 -1.0000 0.0000
vn 0.0000 0.0000 1.0000
vn 0.0000 0.0000 -1.0000
s 1
f 1/1/1 2/2/1 3/3/1
f 3/4/1 2/2/1 4/5/1
f 3/6/2 4/7/2 5/8/2
f 5/8/2 4/7/2 6/9/2
f 5/10/3 6/11/3 7/12/3
f 7/12/3 6/11/3 8/13/3
f 7/14/4 8/15/4 1/16/4
f 1/16/4 8/15/4 2/17/4
f 2/18/5 8/19/5 4/20/5
f 4/20/5 8/19/5 6/21/5
f 7/22/6 1/23/6 5/24/6
f 5/24/6 1/23/6 3/25/6
