# Blender v2.82 (sub 7) OBJ File: ''
# www.blender.org
mtllib towerSquare_bottomB.mtl
o towerSquare_bottomB
v 0.217500 -0.187578 -0.435000
v 0.217500 0.012422 -0.500000
v 0.217500 -0.187578 -0.500000
v 0.217500 0.132422 -0.435000
v 0.217500 -0.027578 -0.435000
v 0.435000 0.312422 -0.217500
v 0.435000 0.132422 -0.435000
v 0.435000 0.312422 -0.435000
v 0.435000 0.132422 -0.217500
v -0.500000 -0.187578 -0.500000
v -0.217500 0.012422 -0.500000
v -0.217500 -0.187578 -0.500000
v -0.500000 0.012422 -0.500000
v -0.500000 0.012422 -0.217500
v -0.435000 0.132422 -0.435000
v -0.435000 0.132422 -0.217500
v -0.435000 0.312422 -0.435000
v -0.217500 0.132422 -0.435000
v -0.217500 0.312422 -0.435000
v -0.217500 -0.187578 -0.435000
v -0.217500 -0.027578 -0.435000
v 0.217500 -0.187578 0.500000
v 0.500000 -0.187578 0.217500
v 0.500000 -0.187578 0.500000
v 0.435000 -0.187578 0.217500
v 0.435000 -0.187578 -0.217500
v 0.217500 -0.187578 0.435000
v -0.217500 -0.187578 0.435000
v 0.500000 -0.187578 -0.500000
v 0.500000 -0.187578 -0.217500
v -0.500000 -0.187578 0.500000
v -0.217500 -0.187578 0.500000
v -0.435000 -0.187578 0.217500
v -0.500000 -0.187578 0.217500
v -0.435000 -0.187578 -0.217500
v -0.500000 -0.187578 -0.217500
v -0.217500 0.312422 -0.217500
v -0.435000 0.312422 -0.217500
v -0.435000 -0.027578 -0.217500
v 0.435000 0.312422 0.435000
v 0.217500 0.132422 0.435000
v 0.435000 0.132422 0.435000
v 0.217500 0.312422 0.435000
v 0.435000 0.132422 0.217500
v 0.500000 0.012422 0.500000
v 0.500000 0.012422 0.217500
v 0.217500 -0.027578 0.435000
v 0.217500 0.012422 0.500000
v 0.500000 0.012422 -0.500000
v 0.217500 0.312422 0.217500
v 0.435000 0.312422 0.217500
v 0.217500 0.312422 -0.435000
v 0.217500 0.312422 -0.217500
v 0.435000 -0.027578 0.217500
v 0.500000 0.012422 -0.217500
v 0.435000 -0.027578 -0.217500
v -0.217500 0.132422 0.435000
v -0.500000 0.012422 0.500000
v -0.217500 0.012422 0.500000
v -0.435000 0.132422 0.435000
v -0.217500 0.312422 0.435000
v -0.435000 0.312422 0.435000
v -0.435000 0.312422 0.217500
v -0.435000 0.132422 0.217500
v -0.217500 0.312422 0.217500
v -0.500000 0.012422 0.217500
v -0.435000 -0.027578 0.217500
v -0.217500 -0.027578 0.435000
vt -17.125980 0.000000
vt -19.685040 7.874016
vt -19.685040 0.000000
vt -17.125980 12.598420
vt -17.125980 6.299212
vt 8.562992 19.685040
vt 17.125980 12.598420
vt 17.125980 19.685040
vt 8.562992 12.598420
vt 19.685040 0.000000
vt 8.562992 7.874016
vt 8.562992 0.000000
vt 19.685040 7.874016
vt -8.562992 -2.452094
vt -17.125980 2.920876
vt -19.685040 -2.452094
vt -8.562992 2.920876
vt 17.125980 19.685040
vt 8.562992 12.598420
vt 17.125980 12.598420
vt 8.562992 19.685040
vt 17.125980 12.598420
vt 19.685040 0.000000
vt 19.685040 7.874016
vt 17.125980 0.000000
vt 17.125980 6.299212
vt 8.562992 19.685040
vt 19.685040 8.562992
vt 19.685040 19.685040
vt 17.125980 8.562992
vt 17.125980 -8.562992
vt 8.562992 17.125980
vt 8.562992 -17.125980
vt -8.562992 17.125980
vt -8.562992 -17.125980
vt 8.562992 -19.685040
vt 19.685040 -19.685040
vt 19.685040 -8.562992
vt -19.685040 19.685040
vt -8.562992 19.685040
vt -8.562992 -19.685040
vt -17.125980 8.562992
vt -19.685040 8.562992
vt -17.125980 -8.562992
vt -19.685040 -19.685040
vt -19.685040 -8.562992
vt 17.125980 -17.125980
vt 8.562992 -8.562992
vt 8.562992 -17.125980
vt 17.125980 -8.562992
vt -8.562992 0.000000
vt -19.685040 7.874016
vt -19.685040 0.000000
vt -8.562992 7.874016
vt -8.562992 12.598420
vt -17.125980 19.685040
vt -17.125980 12.598420
vt -8.562992 19.685040
vt -17.125980 0.000000
vt -19.685040 7.874016
vt -19.685040 0.000000
vt -17.125980 6.299212
vt -17.125980 12.598420
vt 19.685040 -2.452094
vt 8.562992 2.920876
vt 8.562992 -2.452094
vt 17.125980 2.920876
vt 17.125980 19.685040
vt 8.562992 12.598420
vt 17.125980 12.598420
vt 8.562992 19.685040
vt -8.562992 2.920876
vt -19.685040 -2.452094
vt -8.562992 -2.452094
vt -17.125980 2.920876
vt 19.685040 0.000000
vt 17.125980 6.299212
vt 17.125980 0.000000
vt 17.125980 12.598420
vt 19.685040 7.874016
vt -8.562992 2.920876
vt -19.685040 -2.452094
vt -8.562992 -2.452094
vt -17.125980 2.920876
vt -8.562992 8.562992
vt -17.125980 17.125980
vt -17.125980 8.562992
vt -8.562992 17.125980
vt -8.562992 -17.125980
vt -17.125980 -8.562992
vt -17.125980 -17.125980
vt -8.562992 -8.562992
vt 19.685040 -2.452094
vt 8.562992 2.920876
vt 8.562992 -2.452094
vt 17.125980 2.920876
vt -19.685040 7.874016
vt -8.562992 0.000000
vt -8.562992 7.874016
vt -19.685040 0.000000
vt -17.125980 19.685040
vt -8.562992 12.598420
vt -8.562992 19.685040
vt -17.125980 12.598420
vt 19.685040 0.000000
vt 8.562992 7.874016
vt 8.562992 0.000000
vt 19.685040 7.874016
vt -17.125980 0.000000
vt -19.685040 7.874016
vt -19.685040 0.000000
vt -17.125980 6.299212
vt -17.125980 12.598420
vt -8.562992 19.685040
vt -17.125980 12.598420
vt -8.562992 12.598420
vt -17.125980 19.685040
vt 17.125980 2.920876
vt 8.562992 -2.452094
vt 19.685040 -2.452094
vt 8.562992 2.920876
vt 19.685040 7.874016
vt 17.125980 0.000000
vt 19.685040 0.000000
vt 17.125980 6.299212
vt 17.125980 12.598420
vt -8.562992 7.874016
vt -19.685040 0.000000
vt -8.562992 0.000000
vt -19.685040 7.874016
vt 8.562992 7.874016
vt 19.685040 0.000000
vt 19.685040 7.874016
vt 8.562992 0.000000
vt -8.562992 2.920876
vt -19.685040 -2.452094
vt -8.562992 -2.452094
vt -17.125980 2.920876
vt -8.562992 19.685040
vt -17.125980 12.598420
vt -8.562992 12.598420
vt -17.125980 19.685040
vt 17.125980 12.598420
vt 8.562992 19.685040
vt 8.562992 12.598420
vt 17.125980 19.685040
vt 17.125980 8.562992
vt 8.562992 17.125980
vt 8.562992 8.562992
vt 17.125980 17.125980
vt 19.685040 -2.452094
vt 8.562992 2.920876
vt 8.562992 -2.452094
vt 17.125980 2.920876
vt 19.685040 7.874016
vt 17.125980 0.000000
vt 19.685040 0.000000
vt 17.125980 6.299212
vt 17.125980 12.598420
vt -19.685040 7.874016
vt -17.125980 6.299212
vt -17.125980 12.598420
vt -17.125980 0.000000
vt -19.685040 0.000000
vt -8.562992 7.874016
vt -19.685040 0.000000
vt -8.562992 0.000000
vt -19.685040 7.874016
vt 8.562992 0.000000
vt 19.685040 7.874016
vt 8.562992 7.874016
vt 19.685040 0.000000
vt -8.562992 6.299212
vt 8.562992 6.299212
vt 8.562992 6.299212
vt -8.562992 6.299212
vt 8.562992 6.299212
vt -8.562992 6.299212
vt -8.562992 6.299212
vt 8.562992 6.299212
vt 8.562992 0.000000
vt -8.562992 0.000000
vt 8.562992 0.000000
vt -8.562992 0.000000
vt -8.562992 0.000000
vt 8.562992 0.000000
vt -8.562992 0.000000
vt 8.562992 0.000000
vn -1.0000 0.0000 0.0000
vn -0.0000 -0.0000 1.0000
vn 1.0000 0.0000 0.0000
vn 0.0000 0.0000 -1.0000
vn -0.8793 0.4763 0.0000
vn 0.0000 -1.0000 -0.0000
vn 0.0000 1.0000 0.0000
vn -0.0215 -0.7069 -0.7069
vn 0.0000 0.4763 -0.8793
vn 0.8793 0.4763 0.0000
vn 0.7875 -0.6077 0.1027
vn -0.0001 1.0000 0.0000
vn 0.0000 0.4763 0.8793
usemtl purple
s 1
f 1/1/1 2/2/1 3/3/1
f 2/2/1 1/1/1 4/4/1
f 4/4/1 1/1/1 5/5/2
f 6/6/3 7/7/3 8/8/3
f 7/7/3 6/6/3 9/9/3
f 10/10/4 11/11/4 12/12/4
f 11/11/4 10/10/4 13/13/4
f 14/14/5 15/15/5 13/16/5
f 15/15/5 14/14/5 16/17/5
f 17/18/4 18/19/4 15/20/4
f 18/19/4 17/18/4 19/21/4
f 18/22/3 12/23/3 11/24/3
f 12/23/3 18/22/3 20/25/3
f 20/25/3 18/22/3 21/26/2
f 22/27/6 23/28/6 24/29/6
f 23/28/6 22/27/6 25/30/6
f 25/30/6 22/27/6 26/31/6
f 27/32/6 26/31/6 22/27/6
f 1/33/6 26/31/6 27/32/6
f 28/34/6 1/33/6 27/32/6
f 1/33/6 28/34/6 20/35/6
f 3/36/6 26/31/6 1/33/6
f 29/37/6 26/31/6 3/36/6
f 26/31/6 29/37/6 30/38/6
f 28/34/6 31/39/6 20/35/6
f 31/39/6 28/34/6 32/40/6
f 20/35/6 31/39/6 12/41/6
f 12/41/6 31/39/6 33/42/6
f 33/42/6 31/39/6 34/43/6
f 35/44/6 12/41/6 33/42/6
f 12/41/6 35/44/6 10/45/6
f 10/45/6 35/44/6 36/46/6
f 17/47/7 37/48/8 19/49/7
f 37/48/8 17/47/7 38/50/7
f 36/51/1 13/52/1 10/53/1
f 13/52/1 36/51/1 14/54/1
f 16/55/1 17/56/1 15/57/1
f 17/56/1 16/55/1 38/58/1
f 35/59/2 14/60/2 36/61/2
f 14/60/2 35/59/2 39/62/2
f 14/60/2 39/62/2 16/63/2
f 13/64/9 18/65/9 11/66/9
f 18/65/9 13/64/9 15/67/9
f 40/68/2 41/69/2 42/70/2
f 41/69/2 40/68/2 43/71/2
f 44/72/10 45/73/10 46/74/10
f 45/73/10 44/72/10 42/75/10
f 22/76/1 47/77/1 27/78/1
f 47/77/1 22/76/1 41/79/1
f 41/79/1 22/76/1 48/80/1
f 4/81/9 49/82/9 2/83/9
f 49/82/9 4/81/9 7/84/9
f 50/85/11 40/86/7 51/87/7
f 40/86/7 50/85/11 43/88/12
f 52/89/7 6/90/7 8/91/7
f 6/90/7 52/89/7 53/92/7
f 45/93/13 41/94/13 48/95/13
f 41/94/13 45/93/13 42/96/13
f 45/97/3 23/98/3 46/99/3
f 23/98/3 45/97/3 24/100/3
f 40/101/3 44/102/3 51/103/3
f 44/102/3 40/101/3 42/104/3
f 24/105/2 48/106/2 22/107/2
f 48/106/2 24/105/2 45/108/2
f 25/109/4 46/110/4 23/111/4
f 46/110/4 25/109/4 54/112/4
f 46/110/4 54/112/4 44/113/4
f 52/114/4 7/115/4 4/116/4
f 7/115/4 52/114/4 8/117/4
f 7/118/10 55/119/10 49/120/10
f 55/119/10 7/118/10 9/121/10
f 55/122/2 26/123/2 30/124/2
f 26/123/2 55/122/2 56/125/2
f 56/125/2 55/122/2 9/126/2
f 2/127/4 29/128/4 3/129/4
f 29/128/4 2/127/4 49/130/4
f 55/131/3 29/132/3 49/133/3
f 29/132/3 55/131/3 30/134/3
f 57/135/13 58/136/13 59/137/13
f 58/136/13 57/135/13 60/138/13
f 61/139/2 60/140/2 57/141/2
f 60/140/2 61/139/2 62/142/2
f 60/143/1 63/144/1 64/145/1
f 63/144/1 60/143/1 62/146/1
f 63/147/7 61/148/7 65/149/7
f 61/148/7 63/147/7 62/150/7
f 58/151/5 64/152/5 66/153/5
f 64/152/5 58/151/5 60/154/5
f 66/155/4 33/156/4 34/157/4
f 33/156/4 66/155/4 67/158/4
f 67/158/4 66/155/4 64/159/4
f 59/160/3 68/161/3 57/162/3
f 68/161/3 59/160/3 28/163/3
f 28/163/3 59/160/3 32/164/3
f 59/165/2 31/166/2 32/167/2
f 31/166/2 59/165/2 58/168/2
f 34/169/1 58/170/1 66/171/1
f 58/170/1 34/169/1 31/172/1
usemtl stone
f 18/19/4 5/173/4 21/174/4
f 5/173/4 18/19/4 4/116/4
f 4/116/4 18/19/4 19/21/4
f 4/116/4 19/21/4 52/114/4
f 67/175/1 16/55/1 39/176/1
f 16/55/1 67/175/1 38/58/1
f 38/58/1 67/175/1 63/144/1
f 63/144/1 67/175/1 64/145/1
f 19/49/7 53/92/7 52/89/7
f 53/92/7 19/49/7 65/149/7
f 65/149/7 19/49/7 37/48/8
f 65/149/7 37/48/8 63/147/7
f 63/147/7 37/48/8 38/50/7
f 61/148/7 53/92/7 65/149/7
f 43/88/12 53/92/7 61/148/7
f 50/85/11 53/92/7 43/88/12
f 50/85/11 6/90/7 53/92/7
f 6/90/7 50/85/11 51/87/7
f 51/103/3 9/9/3 6/6/3
f 9/9/3 51/103/3 56/177/3
f 56/177/3 51/103/3 54/178/3
f 54/178/3 51/103/3 44/102/3
f 41/69/2 68/179/2 47/180/2
f 68/179/2 41/69/2 57/141/2
f 57/141/2 41/69/2 43/71/2
f 57/141/2 43/71/2 61/139/2
usemtl stoneDark
f 54/178/3 26/181/3 56/177/3
f 26/181/3 54/178/3 25/182/3
f 33/183/1 39/176/1 35/184/1
f 39/176/1 33/183/1 67/175/1
f 21/174/4 1/185/4 20/186/4
f 1/185/4 21/174/4 5/173/4
f 47/180/2 28/187/2 27/188/2
f 28/187/2 47/180/2 68/179/2
